<svg xmlns="http://www.w3.org/2000/svg" viewBox="0 0 512 512">
  <defs>
    <linearGradient id="bg" x1="0%" y1="0%" x2="100%" y2="100%">
      <stop offset="0%" style="stop-color:#3B82F6"/>
      <stop offset="100%" style="stop-color:#4F46E5"/>
    </linearGradient>
  </defs>
  <!-- 배경 -->
  <rect width="512" height="512" rx="108" fill="url(#bg)"/>
  <!-- 하이라이트 -->
  <rect x="4" y="4" width="504" height="504" rx="104" fill="none" stroke="white" stroke-opacity="0.12" stroke-width="4"/>
  <!-- 텍스트 줄 (추상적 문서 아이콘) -->
  <g opacity="0.3" fill="white">
    <rect x="120" y="130" width="272" height="20" rx="10"/>
    <rect x="120" y="170" width="220" height="20" rx="10"/>
    <rect x="120" y="210" width="250" height="20" rx="10"/>
    <rect x="120" y="250" width="180" height="20" rx="10"/>
  </g>
  <!-- 커서 라인 (텍스트 에디터 느낌) -->
  <rect x="120" y="300" width="4" height="50" rx="2" fill="white" opacity="0.9"/>
  <!-- 카운터 배지 -->
  <g transform="translate(300, 310)">
    <rect width="100" height="48" rx="24" fill="white"/>
    <text x="50" y="32" text-anchor="middle" font-family="system-ui,sans-serif" font-size="26" font-weight="700" fill="#4F46E5">123</text>
  </g>
  <!-- 반짝임 -->
  <g fill="#FBBF24">
    <g transform="translate(380, 110)">
      <path d="M10 0L12.2 7.8L20 10L12.2 12.2L10 20L7.8 12.2L0 10L7.8 7.8Z"/>
    </g>
    <g transform="translate(350, 82) scale(0.55)" opacity="0.6">
      <path d="M10 0L12.2 7.8L20 10L12.2 12.2L10 20L7.8 12.2L0 10L7.8 7.8Z"/>
    </g>
  </g>
</svg>